<svg height="512" viewBox="0 0 64 64" width="512" xmlns="http://www.w3.org/2000/svg"><g id="Download"><path d="m9 15h46v6h-46z" fill="#006df0"/><rect fill="#ffcd00" height="40" rx="4" width="58" x="3" y="21"/><path d="m57 21h-2v30a4 4 0 0 1 -4 4h-48v2a4 4 0 0 0 4 4h50a4 4 0 0 0 4-4v-32a4 4 0 0 0 -4-4z" fill="#ddb200"/><path d="m57 11h-25v-2a4 4 0 0 0 -4-4h-12a4 4 0 0 0 -4 4v2h-5a4 4 0 0 0 -4 4v10a4 4 0 0 1 4-4h2v-6h46v6h2a4 4 0 0 1 4 4v-10a4 4 0 0 0 -4-4z" fill="#cca400"/><path d="m39 21v6h-6l11.94 14 12.06-14h-6v-6-6-4-8h-12v8 4z" fill="#d80027"/><path d="m9 43h24v12h-24z" fill="#5eac24"/><g fill="#231f20"><path d="m57 10h-5v-7a1 1 0 0 0 -1-1h-12a1 1 0 0 0 -1 1v7h-5v-1a5.006 5.006 0 0 0 -5-5h-12a5.006 5.006 0 0 0 -5 5v1h-4a5.006 5.006 0 0 0 -5 5v42a5.006 5.006 0 0 0 5 5h50a5.006 5.006 0 0 0 5-5v-42a5.006 5.006 0 0 0 -5-5zm0 2a3 3 0 0 1 3 3v6.026a4.948 4.948 0 0 0 -3-1.026h-1v-5a1 1 0 0 0 -1-1h-3v-2zm-5 8v-4h2v4zm-12-16h10v23a1 1 0 0 0 1 1h3.819l-9.875 11.463-9.777-11.463h3.833a1 1 0 0 0 1-1zm-2 16h-28v-4h28zm-31-8h5a1 1 0 0 0 1-1v-2a3 3 0 0 1 3-3h12a3 3 0 0 1 3 3v2a1 1 0 0 0 1 1h6v2h-29a1 1 0 0 0 -1 1v5h-1a4.948 4.948 0 0 0 -3 1.026v-6.026a3 3 0 0 1 3-3zm53 45a3 3 0 0 1 -3 3h-50a3 3 0 0 1 -3-3v-32a3 3 0 0 1 3-3h31v4h-5a1 1 0 0 0 -.761 1.649l11.94 14a1.048 1.048 0 0 0 .761.351 1 1 0 0 0 .758-.347l12.06-14a1 1 0 0 0 -.758-1.653h-5v-4h5a3 3 0 0 1 3 3z"/><path d="m33 56h-24a1 1 0 0 1 -1-1v-12a1 1 0 0 1 1-1h24a1 1 0 0 1 1 1v12a1 1 0 0 1 -1 1zm-23-2h22v-10h-22z"/><path d="m14 48h-1a1 1 0 0 1 0-2h1a1 1 0 0 1 0 2z"/><path d="m29 48h-11a1 1 0 0 1 0-2h11a1 1 0 0 1 0 2z"/><path d="m14 52h-1a1 1 0 0 1 0-2h1a1 1 0 0 1 0 2z"/><path d="m29 52h-11a1 1 0 0 1 0-2h11a1 1 0 0 1 0 2z"/></g></g></svg>