<?xml version="1.0" encoding="iso-8859-1"?>
<!-- Generator: Adobe Illustrator 19.0.0, SVG Export Plug-In . SVG Version: 6.00 Build 0)  -->
<svg version="1.1" id="Layer_1" xmlns="http://www.w3.org/2000/svg" xmlns:xlink="http://www.w3.org/1999/xlink" x="0px" y="0px"
	 viewBox="0 0 511.994 511.994" style="enable-background:new 0 0 511.994 511.994;" xml:space="preserve">
<g>
	<path style="fill:#A67EFF;" d="M433.429,59.223c27.074,0,49.021,21.947,49.021,49.011c0,27.074-21.947,49.021-49.021,49.021
		c-0.061,0-0.132,0-0.193,0c-26.973-0.101-48.818-22.008-48.818-49.021C384.418,81.17,406.365,59.223,433.429,59.223z"/>
	<path style="fill:#A67EFF;" d="M473.705,340.39v113.879h-40.277h-40.267V340.389h-0.01c-17.094,0-30.965-13.861-30.965-30.965
		V229.55c0-39.436,31.603-72.184,71.049-72.295c0.061,0,0.132,0,0.193,0c19.687,0,37.48,7.974,50.379,20.863
		c12.889,12.889,20.863,30.691,20.863,50.369v80.938C504.67,326.528,490.809,340.39,473.705,340.39z"/>
</g>
<g>
	<path style="fill:#52DBFF;" d="M362.458,59.223c27.074,0,49.021,21.947,49.021,49.011c0,27.074-21.947,49.021-49.021,49.021
		c-0.061,0-0.132,0-0.193,0c-26.973-0.101-48.818-22.008-48.818-49.021C313.447,81.17,335.394,59.223,362.458,59.223z"/>
	<path style="fill:#52DBFF;" d="M402.734,340.39v113.879h-40.277h-40.267V340.389h-0.01c-17.094,0-30.965-13.861-30.965-30.965
		V229.55c0-39.436,31.603-72.184,71.049-72.295c0.061,0,0.132,0,0.193,0c19.687,0,37.48,7.974,50.379,20.863
		c12.889,12.889,20.863,30.691,20.863,50.369v80.938C433.699,326.528,419.838,340.39,402.734,340.39z"/>
</g>
<g>
	<path style="fill:#00DCAB;" d="M291.486,59.223c27.074,0,49.021,21.947,49.021,49.011c0,27.074-21.947,49.021-49.021,49.021
		c-0.061,0-0.132,0-0.193,0c-26.973-0.101-48.818-22.008-48.818-49.021C242.475,81.17,264.422,59.223,291.486,59.223z"/>
	<path style="fill:#00DCAB;" d="M331.762,340.39v113.879h-40.277h-40.267V340.389h-0.01c-17.094,0-30.965-13.861-30.965-30.965
		V229.55c0-39.436,31.603-72.184,71.049-72.295c0.061,0,0.132,0,0.193,0c19.687,0,37.48,7.974,50.379,20.863
		c12.889,12.889,20.863,30.691,20.863,50.369v80.938C362.727,326.528,348.866,340.39,331.762,340.39z"/>
</g>
<g>
	<path style="fill:#FFDD00;" d="M220.514,59.223c27.074,0,49.021,21.947,49.021,49.011c0,27.074-21.947,49.021-49.021,49.021
		c-0.061,0-0.132,0-0.193,0c-26.973-0.101-48.818-22.008-48.818-49.021C171.504,81.17,193.451,59.223,220.514,59.223z"/>
	<path style="fill:#FFDD00;" d="M260.791,340.39v113.879h-40.277h-40.267V340.389h-0.01c-17.094,0-30.965-13.861-30.965-30.965
		V229.55c0-39.436,31.603-72.184,71.049-72.295c0.061,0,0.132,0,0.193,0c19.687,0,37.48,7.974,50.379,20.863
		c12.889,12.889,20.863,30.691,20.863,50.369v80.938C291.756,326.528,277.895,340.39,260.791,340.39z"/>
</g>
<g>
	<path style="fill:#FF8522;" d="M149.542,59.223c27.074,0,49.021,21.947,49.021,49.011c0,27.074-21.947,49.021-49.021,49.021
		c-0.061,0-0.132,0-0.193,0c-26.973-0.101-48.818-22.008-48.818-49.021C100.532,81.17,122.479,59.223,149.542,59.223z"/>
	<path style="fill:#FF8522;" d="M189.819,340.39v113.879h-40.277h-40.267V340.389h-0.01c-17.094,0-30.965-13.861-30.965-30.965
		V229.55c0-39.436,31.603-72.184,71.049-72.295c0.061,0,0.132,0,0.193,0c19.687,0,37.48,7.974,50.379,20.863
		c12.889,12.889,20.863,30.691,20.863,50.369v80.938C220.784,326.528,206.923,340.39,189.819,340.39z"/>
</g>
<g>
	<path style="fill:#FA496E;" d="M78.569,59.223c27.074,0,49.021,21.947,49.021,49.011c0,27.074-21.947,49.021-49.021,49.021
		c-0.061,0-0.132,0-0.193,0c-26.973-0.101-48.818-22.008-48.818-49.021C29.559,81.17,51.505,59.223,78.569,59.223z"/>
	<path style="fill:#FA496E;" d="M118.846,340.39v113.879H78.569H38.303V340.389h-0.01c-17.094,0-30.965-13.861-30.965-30.965V229.55
		c0-39.436,31.603-72.184,71.049-72.295c0.061,0,0.132,0,0.193,0c19.687,0,37.48,7.974,50.379,20.863
		c12.889,12.889,20.863,30.691,20.863,50.369v80.938C149.811,326.528,135.95,340.39,118.846,340.39z"/>
</g>
<path d="M260.638,258.074c4.197,0,7.599-3.402,7.599-7.599v-32.341c0-4.197-3.402-7.599-7.599-7.599s-7.599,3.402-7.599,7.599
	v32.341C253.039,254.672,256.441,258.074,260.638,258.074z"/>
<path d="M505.085,195.571c-1.725-3.826-6.227-5.528-10.051-3.803c-3.826,1.726-5.528,6.226-3.802,10.052
	c3.696,8.194,5.571,16.95,5.571,26.023v80.631c0,10.158-6.552,18.809-15.649,21.966V218.133c0-4.197-3.402-7.599-7.599-7.599
	s-7.599,3.402-7.599,7.599v227.038H441.03V227.845c0-20.984-8.172-40.713-23.012-55.553c-1.554-1.552-3.172-3.014-4.829-4.42
	c6.433-2.212,13.213-3.368,20.05-3.389h0.191c16.922,0,32.838,6.591,44.816,18.56c1.483,1.482,3.428,2.224,5.371,2.224
	c1.945,0,3.892-0.743,5.375-2.228c2.967-2.969,2.965-7.781-0.004-10.748c-7.293-7.287-15.768-12.955-24.987-16.848
	c15.539-10.063,25.852-27.541,25.852-47.395c0-31.113-25.312-56.425-56.425-56.425c-7.88,0-15.509,1.595-22.671,4.741
	c-3.842,1.688-5.59,6.171-3.902,10.014c1.687,3.842,6.17,5.59,10.013,3.902c5.225-2.295,10.797-3.458,16.561-3.458
	c22.732,0,41.226,18.494,41.226,41.226c0,22.737-18.494,41.236-41.226,41.236h-0.164c-9.16-0.033-17.796-3.011-24.901-8.484
	c6.61-9.243,10.518-20.546,10.518-32.751c0-31.113-25.312-56.425-56.425-56.425c-6.678,0-13.218,1.157-19.438,3.439
	c-3.941,1.446-5.962,5.812-4.517,9.753c1.446,3.941,5.811,5.962,9.753,4.517c4.537-1.665,9.316-2.509,14.203-2.509
	c22.732,0,41.226,18.494,41.226,41.226c0,22.737-18.494,41.236-41.226,41.236h-0.164c-9.16-0.033-17.796-3.011-24.901-8.484
	c6.61-9.243,10.518-20.546,10.518-32.751c0-31.113-25.312-56.425-56.425-56.425c-7.197,0-14.21,1.339-20.845,3.977
	c-3.9,1.551-5.804,5.97-4.253,9.87c1.55,3.9,5.968,5.805,9.87,4.253c4.839-1.925,9.962-2.901,15.227-2.901
	c22.732,0,41.226,18.494,41.226,41.226c0,22.737-18.494,41.236-41.226,41.236h-0.164c-9.16-0.033-17.796-3.011-24.901-8.484
	c6.61-9.243,10.518-20.546,10.518-32.751c0-31.113-25.312-56.425-56.425-56.425c-6.453,0-12.786,1.082-18.821,3.218
	c-3.957,1.399-6.03,5.742-4.631,9.699c1.399,3.957,5.741,6.028,9.699,4.631c4.404-1.557,9.031-2.348,13.753-2.348
	c22.732,0,41.226,18.494,41.226,41.226c0,22.737-18.494,41.236-41.226,41.236h-0.164c-9.16-0.033-17.796-3.011-24.901-8.484
	c6.61-9.243,10.518-20.546,10.518-32.751c0-31.113-25.312-56.425-56.425-56.425c-7.895,0-15.536,1.601-22.711,4.758
	c-3.841,1.69-5.585,6.175-3.895,10.016c1.69,3.842,6.177,5.585,10.017,3.895c5.233-2.303,10.814-3.471,16.589-3.471
	c22.732,0,41.226,18.494,41.226,41.226c0,22.737-18.494,41.236-41.226,41.236h-0.164c-9.16-0.033-17.796-3.011-24.902-8.485
	c6.611-9.242,10.52-20.544,10.52-32.748c0-31.114-25.313-56.427-56.427-56.427S22.143,76.937,22.143,108.05
	c0,19.905,10.37,37.422,25.98,47.47C19.885,167.612,0,195.976,0,228.909v79.566c0,18.598,13.276,34.152,30.848,37.69v106.607
	c0,4.197,3.402,7.599,7.599,7.599h80.244c0.007,0,0.013-0.001,0.019-0.001h30.812c0.007,0,0.013,0.001,0.019,0.001
	c0.006,0,0.013-0.001,0.019-0.001h30.828h9.276h30.827c0.007,0,0.013,0.001,0.019,0.001s0.013-0.001,0.019-0.001h30.828h9.276
	h30.828c0.007,0,0.013,0.001,0.019,0.001c0.006,0,0.013-0.001,0.019-0.001h30.827h9.276h30.828c0.007,0,0.013,0.001,0.019,0.001
	c0.006,0,0.013-0.001,0.019-0.001H393.3h9.276h30.828c0.007,0,0.013,0.001,0.019,0.001s0.013-0.001,0.019-0.001h40.104
	c4.197,0,7.599-3.402,7.599-7.599V346.165c17.572-3.537,30.847-19.091,30.847-37.689v-80.631
	C512,216.602,509.674,205.743,505.085,195.571z M410.181,346.165c5.791-1.166,11.112-3.639,15.649-7.095v106.101h-15.649V346.165z
	 M397.917,151.902c1.613,1.314,3.284,2.534,5.014,3.651c-1.631,0.698-3.239,1.455-4.822,2.266c-1.667-0.85-3.357-1.65-5.078-2.376
	C394.722,154.347,396.356,153.167,397.917,151.902z M326.946,151.902c1.613,1.314,3.284,2.534,5.014,3.651
	c-1.631,0.698-3.239,1.455-4.822,2.266c-1.667-0.85-3.357-1.65-5.078-2.376C323.751,154.347,325.384,153.167,326.946,151.902z
	 M255.974,151.902c1.613,1.314,3.284,2.534,5.014,3.651c-1.631,0.698-3.239,1.455-4.822,2.266c-1.667-0.85-3.357-1.65-5.078-2.376
	C252.779,154.347,254.413,153.167,255.974,151.902z M185.003,151.902c1.613,1.314,3.284,2.534,5.014,3.651
	c-1.631,0.698-3.239,1.455-4.822,2.266c-1.667-0.85-3.357-1.65-5.078-2.376C181.808,154.347,183.441,153.167,185.003,151.902z
	 M109.132,155.447c1.696-1.097,3.333-2.278,4.897-3.546c1.613,1.314,3.285,2.535,5.016,3.653c-1.633,0.699-3.243,1.457-4.828,2.269
	C112.548,156.971,110.855,156.174,109.132,155.447z M37.341,108.05c0-22.733,18.495-41.228,41.228-41.228
	s41.228,18.495,41.228,41.228s-18.495,41.229-41.228,41.229S37.341,130.784,37.341,108.05z M38.448,210.532
	c-4.197,0-7.599,3.402-7.599,7.599v112.31c-9.098-3.155-15.65-11.807-15.65-21.965V228.91c0-35.431,28.35-64.333,63.197-64.426
	c16.969-0.052,32.968,6.546,44.989,18.558c11.967,11.967,18.558,27.879,18.558,44.805v80.631c0,10.159-6.553,18.812-15.652,21.967
	V218.132c0-4.197-3.402-7.599-7.599-7.599s-7.599,3.402-7.599,7.599v227.04h-1.674c-0.007,0-0.013,0.001-0.019,0.001H86.169V298.441
	c0-4.197-3.402-7.599-7.599-7.599s-7.599,3.402-7.599,7.599v146.732H46.047V218.132C46.047,213.935,42.645,210.532,38.448,210.532z
	 M126.291,346.166c5.793-1.165,11.115-3.639,15.652-7.095v106.1h-15.652V346.166z M180.39,445.172h-23.248V308.476v-80.631
	c0-20.985-8.171-40.713-23.011-55.553c-1.554-1.552-3.174-3.014-4.831-4.419c6.433-2.212,13.214-3.368,20.051-3.389h0.191
	c16.922,0,32.838,6.591,44.815,18.558c11.967,11.967,18.558,27.879,18.558,44.805v80.631c0,10.158-6.552,18.809-15.649,21.966
	V218.135c0-4.197-3.402-7.599-7.599-7.599c-4.197,0-7.599,3.402-7.599,7.599v227.038h-1.678V445.172z M197.266,346.165
	c5.791-1.166,11.112-3.639,15.649-7.094v106.1h-15.649V346.165z M251.362,445.172h-23.249V227.845
	c0-20.985-8.171-40.713-23.011-55.553c-1.554-1.552-3.172-3.014-4.829-4.42c6.433-2.211,13.213-3.367,20.05-3.389h0.191
	c16.922,0,32.838,6.591,44.815,18.558c11.967,11.967,18.558,27.88,18.558,44.805v80.631c0,10.158-6.552,18.809-15.649,21.966
	v-54.635c0-4.197-3.402-7.599-7.599-7.599c-4.197,0-7.599,3.402-7.599,7.599v169.366h-1.678V445.172z M268.238,346.165
	c5.791-1.166,11.112-3.639,15.649-7.095v106.101h-15.649V346.165z M322.333,445.172h-23.248V227.845
	c0-20.984-8.172-40.713-23.012-55.553c-1.554-1.552-3.173-3.014-4.829-4.42c6.433-2.212,13.213-3.368,20.05-3.389h0.191
	c16.922,0,32.838,6.591,44.814,18.558c11.967,11.967,18.558,27.88,18.558,44.805v80.631c0,10.158-6.552,18.809-15.649,21.966
	V218.134c0-4.197-3.402-7.599-7.599-7.599c-4.197,0-7.599,3.402-7.599,7.599v227.038L322.333,445.172L322.333,445.172z
	 M339.209,346.165c5.791-1.166,11.112-3.639,15.649-7.095v106.101h-15.649V346.165z M393.305,445.172h-23.248V227.845
	c0-20.984-8.172-40.713-23.012-55.553c-1.554-1.552-3.173-3.014-4.829-4.42c6.433-2.212,13.213-3.368,20.05-3.389h0.191
	c16.922,0,32.838,6.591,44.814,18.558c11.967,11.967,18.558,27.88,18.558,44.805v80.631c0,10.158-6.552,18.809-15.649,21.966
	V218.134c0-4.197-3.402-7.599-7.599-7.599c-4.197,0-7.599,3.402-7.599,7.599v227.038L393.305,445.172L393.305,445.172z"/>
<g>
</g>
<g>
</g>
<g>
</g>
<g>
</g>
<g>
</g>
<g>
</g>
<g>
</g>
<g>
</g>
<g>
</g>
<g>
</g>
<g>
</g>
<g>
</g>
<g>
</g>
<g>
</g>
<g>
</g>
</svg>
