<?xml version="1.0" encoding="iso-8859-1"?>
<!-- Generator: Adobe Illustrator 19.0.0, SVG Export Plug-In . SVG Version: 6.00 Build 0)  -->
<svg version="1.1" id="Capa_1" xmlns="http://www.w3.org/2000/svg" xmlns:xlink="http://www.w3.org/1999/xlink" x="0px" y="0px"
	 viewBox="0 0 512 512" style="enable-background:new 0 0 512 512;" xml:space="preserve">
<circle style="fill:#495059;" cx="104.96" cy="117.76" r="32.981"/>
<path style="fill:#60C28E;" d="M317.442,489.86H127.558V117.763H409.39V224.88c0,11.75-3.864,23.174-10.997,32.512l-19.795,25.915
	c-5.598,7.329-9.209,15.979-10.483,25.113l-21.803,156.317C344.303,479.141,331.985,489.86,317.442,489.86z"/>
<path style="fill:#59B382;" d="M127.558,489.86h189.884c8.386,0,16.018-3.577,21.374-9.357
	C212.704,409.39,190.157,259.537,187.865,165.231c-0.237-9.734,7.586-17.746,17.323-17.746H409.39v-29.722H127.558V489.86z"/>
<g>
	<path style="fill:#FFFFFF;" d="M232.472,309.633h-32.506c-7.852,0-14.883-4.06-18.809-10.859c-3.926-6.8-3.926-14.919,0-21.719
		l26.908-46.605c2.071-3.588,6.657-4.817,10.245-2.745c3.587,2.071,4.816,6.658,2.745,10.245l-26.908,46.605
		c-1.75,3.032-0.583,5.709,0.001,6.719c0.583,1.01,2.317,3.359,5.819,3.359h32.506c4.142,0,7.5,3.358,7.5,7.5
		S236.614,309.633,232.472,309.633z"/>
	<path style="fill:#FFFFFF;" d="M307.596,309.633h-53.815c-4.142,0-7.5-3.358-7.5-7.5s3.358-7.5,7.5-7.5h53.815
		c3.501,0,5.235-2.349,5.818-3.359s1.751-3.687,0.001-6.719l-17.917-31.032c-2.071-3.587-0.842-8.174,2.745-10.245
		s8.174-0.842,10.245,2.745l17.916,31.032c3.926,6.8,3.926,14.919,0,21.719C322.478,305.574,315.447,309.633,307.596,309.633z"/>
	<path style="fill:#FFFFFF;" d="M293.009,241.701c-2.592,0-5.113-1.345-6.502-3.751L259.6,191.345
		c-1.751-3.032-4.653-3.359-5.819-3.359c-1.167,0-4.068,0.327-5.819,3.359l-17.916,31.032c-2.071,3.586-6.658,4.815-10.245,2.745
		c-3.587-2.071-4.816-6.658-2.745-10.245l17.917-31.032c3.926-6.8,10.957-10.859,18.81-10.859c7.851,0,14.883,4.059,18.809,10.859
		l26.907,46.605c2.071,3.587,0.842,8.174-2.745,10.245C295.571,241.377,294.281,241.701,293.009,241.701z"/>
	<path style="fill:#FFFFFF;" d="M275.372,328.235c-1.561,0-3.135-0.485-4.482-1.492l-19.618-14.653
		c-3.171-2.369-4.99-5.998-4.99-9.957c0-3.958,1.819-7.587,4.99-9.956l19.618-14.653c3.318-2.479,8.018-1.799,10.497,1.521
		c2.479,3.319,1.798,8.019-1.521,10.497l-16.859,12.593l16.859,12.592c3.318,2.478,4,7.178,1.521,10.497
		C279.914,327.195,277.657,328.235,275.372,328.235z"/>
	<path style="fill:#FFFFFF;" d="M290.552,242.373c-1.661,0-3.329-0.339-4.918-1.021l-22.498-9.662
		c-3.806-1.635-5.567-6.045-3.932-9.851c1.635-3.807,6.047-5.566,9.851-3.932l19.335,8.303l2.476-20.896
		c0.487-4.113,4.216-7.053,8.33-6.566c4.114,0.487,7.053,4.217,6.565,8.33l-2.881,24.316c-0.465,3.931-2.699,7.321-6.127,9.3
		C294.822,241.81,292.693,242.373,290.552,242.373z"/>
	<path style="fill:#FFFFFF;" d="M219.861,269.705c-3.748,0-6.987-2.805-7.438-6.619l-2.476-20.896l-19.335,8.304
		c-3.805,1.636-8.217-0.126-9.851-3.931c-1.635-3.806,0.125-8.217,3.931-9.851l22.499-9.663c3.639-1.563,7.691-1.323,11.119,0.656
		c3.428,1.98,5.662,5.369,6.127,9.3l2.881,24.316c0.488,4.113-2.452,7.843-6.566,8.33
		C220.453,269.687,220.155,269.705,219.861,269.705z"/>
	<path style="fill:#FFFFFF;" d="M307.596,309.633h-53.815c-4.142,0-7.5-3.358-7.5-7.5s3.358-7.5,7.5-7.5h53.815
		c3.501,0,5.235-2.349,5.818-3.359s1.751-3.687,0.001-6.719l-16.254-28.151c-2.071-3.587-0.842-8.174,2.745-10.245
		c3.585-2.07,8.173-0.842,10.245,2.745l16.253,28.151c3.926,6.8,3.926,14.919,0,21.719
		C322.478,305.574,315.447,309.633,307.596,309.633z"/>
</g>
<path style="fill:#C7C9CC;" d="M259.28,388.47c-10.663,0-21.055-3.362-29.698-9.608l-28.637-20.696
	c-8.643-6.246-19.034-9.608-29.698-9.608h-43.69V489.86h189.884c14.543,0,26.861-10.719,28.87-25.123l10.638-76.267H259.28z"/>
<path style="fill:#B2B5B8;" d="M338.816,480.503c-42.99-24.242-73.951-57.625-96.169-94.85c-4.634-1.609-9.04-3.884-13.064-6.792
	l-28.637-20.696c-8.643-6.246-19.034-9.608-29.698-9.608h-43.69V489.86h189.884C325.828,489.86,333.459,486.283,338.816,480.503z"/>
<circle style="fill:#495059;" cx="139.56" cy="459.14" r="45.36"/>
<circle style="fill:#C7C9CC;" cx="139.56" cy="459.14" r="19.12"/>
<path style="fill:#80D3AE;" d="M420.687,50.496H116.261c-10.678,0-19.335,8.656-19.335,19.335v28.597
	c0,10.678,8.656,19.335,19.335,19.335h304.426c10.678,0,19.335-8.656,19.335-19.335V69.831
	C440.022,59.153,431.365,50.496,420.687,50.496z"/>
<path style="fill:#60C28E;" d="M414.776,50.496H122.172L134.9,23.192C139.361,13.62,148.965,7.5,159.526,7.5h217.896
	c10.561,0,20.165,6.12,24.627,15.692L414.776,50.496z"/>
<g>
	<ellipse style="fill:#FFFFFF;" cx="215.05" cy="96.81" rx="19.713" ry="15.699"/>
	<ellipse style="fill:#FFFFFF;" cx="321.9" cy="96.81" rx="19.713" ry="15.699"/>
</g>
<path style="fill:#59B382;" d="M253.781,7.5h-94.254c-10.561,0-20.165,6.12-24.627,15.692l-12.727,27.305H272.84
	C253.952,41.667,245.953,23.299,253.781,7.5z"/>
<path d="M246.852,428.039v23.951c0,4.142,3.358,7.5,7.5,7.5s7.5-3.358,7.5-7.5v-23.951c0-4.142-3.358-7.5-7.5-7.5
	S246.852,423.897,246.852,428.039z M139.559,485.759c14.68,0,26.622-11.943,26.622-26.623s-11.942-26.622-26.622-26.622
	c-14.68,0-26.622,11.942-26.622,26.622C112.937,473.816,124.879,485.759,139.559,485.759z M139.559,447.515
	c6.408,0,11.622,5.214,11.622,11.622c0,6.409-5.214,11.623-11.622,11.623c-6.408,0-11.622-5.214-11.622-11.623
	C127.937,452.728,133.15,447.515,139.559,447.515z M219.11,420.539c-4.142,0-7.5,3.358-7.5,7.5v23.951c0,4.142,3.358,7.5,7.5,7.5
	s7.5-3.358,7.5-7.5v-23.951C226.61,423.897,223.252,420.539,219.11,420.539z M226.537,66.686c-4.142,0-7.5,3.358-7.5,7.5v6.962
	c0,4.142,3.358,7.5,7.5,7.5s7.5-3.358,7.5-7.5v-6.962C234.037,70.044,230.679,66.686,226.537,66.686z M310.411,66.686
	c-4.142,0-7.5,3.358-7.5,7.5v6.962c0,4.142,3.358,7.5,7.5,7.5s7.5-3.358,7.5-7.5v-6.962
	C317.911,70.044,314.553,66.686,310.411,66.686z M282.095,428.039v23.951c0,4.142,3.358,7.5,7.5,7.5s7.5-3.358,7.5-7.5v-23.951
	c0-4.142-3.358-7.5-7.5-7.5S282.095,423.897,282.095,428.039z M284.458,75.802c-3.123-2.721-7.861-2.397-10.582,0.727
	c-1.365,1.566-3.334,2.464-5.402,2.464s-4.038-0.898-5.402-2.464c-2.721-3.123-7.459-3.448-10.582-0.727
	c-3.122,2.722-3.448,7.459-0.727,10.582c4.215,4.836,10.306,7.609,16.711,7.609s12.496-2.773,16.711-7.609
	C287.906,83.261,287.581,78.523,284.458,75.802z M420.687,42.996h-1.133l-10.708-22.973C403.177,7.859,390.842,0,377.422,0H159.526
	c-13.42,0-25.755,7.859-31.425,20.023l-10.708,22.973h-1.132c-14.797,0-26.835,12.038-26.835,26.835v10.548
	c-14.94,6.182-24.948,20.803-24.948,37.384c0,22.321,18.16,40.481,40.481,40.481c5.239,0,10.349-1.006,15.098-2.917v254.691
	c-19.522,7.779-33.362,26.857-33.362,49.119c0,29.149,23.714,52.863,52.863,52.863c14.127,0,26.967-5.581,36.46-14.64h141.423
	c17.102,0,31.772-11.618,35.677-28.253c0.946-4.033-1.556-8.069-5.588-9.016c-4.037-0.949-8.069,1.556-9.016,5.588
	c-2.305,9.822-10.971,16.681-21.073,16.681H187.034c3.445-7.015,5.388-14.895,5.388-23.223c0-29.148-23.714-52.863-52.863-52.863
	c-1.517,0-3.016,0.079-4.501,0.205v-50.421h36.19c9.144,0,17.894,2.831,25.305,8.186l28.637,20.696
	c9.984,7.215,21.773,11.029,34.091,11.029h89.05l-4.869,34.911c-0.572,4.103,2.29,7.892,6.392,8.464
	c0.352,0.049,0.701,0.073,1.045,0.073c3.683,0,6.896-2.714,7.419-6.465l17.225-123.497c1.093-7.839,4.21-15.307,9.015-21.597
	l19.796-25.916c8.084-10.584,12.536-23.747,12.536-37.064v-99.617h3.797c14.796,0,26.834-12.038,26.834-26.835V69.831
	C447.521,55.034,435.483,42.996,420.687,42.996z M104.96,143.244c-14.05,0-25.481-11.431-25.481-25.481
	c0-8.128,3.821-15.503,9.948-20.21v0.875c0,14.797,12.038,26.835,26.835,26.835h3.796v13.011
	C115.699,141.493,110.441,143.244,104.96,143.244z M139.559,421.274c20.878,0,37.863,16.985,37.863,37.863
	c0,20.878-16.985,37.863-37.863,37.863c-20.877,0-37.863-16.985-37.863-37.863C101.696,438.259,118.681,421.274,139.559,421.274z
	 M401.89,224.88c0,10.045-3.358,19.975-9.457,27.959l-19.795,25.915c-6.37,8.338-10.502,18.238-11.952,28.63l-10.263,73.586h-91.142
	c-9.143,0-17.894-2.831-25.305-8.186l-28.637-20.696c-9.984-7.215-21.772-11.029-34.091-11.029h-36.19V125.263H401.89V224.88z
	 M432.521,98.428c0,6.526-5.309,11.835-11.834,11.835H116.261c-6.526,0-11.835-5.309-11.835-11.835V69.831
	c0-6.526,5.309-11.835,11.835-11.835h36.856c4.142,0,7.5-3.358,7.5-7.5s-3.358-7.5-7.5-7.5h-19.174l7.754-16.636
	C144.914,19.459,151.913,15,159.526,15h217.896c7.614,0,14.612,4.459,17.829,11.36l7.754,16.636H188.777c-4.142,0-7.5,3.358-7.5,7.5
	s3.358,7.5,7.5,7.5h225.975c0.009,0,0.018,0.002,0.028,0.002c0.012,0,0.024-0.002,0.036-0.002h5.87
	c6.525,0,11.834,5.309,11.834,11.835L432.521,98.428L432.521,98.428z"/>
<g>
</g>
<g>
</g>
<g>
</g>
<g>
</g>
<g>
</g>
<g>
</g>
<g>
</g>
<g>
</g>
<g>
</g>
<g>
</g>
<g>
</g>
<g>
</g>
<g>
</g>
<g>
</g>
<g>
</g>
</svg>
