<?xml version="1.0" encoding="iso-8859-1"?>
<!-- Generator: Adobe Illustrator 19.0.0, SVG Export Plug-In . SVG Version: 6.00 Build 0)  -->
<svg version="1.1" id="Layer_1" xmlns="http://www.w3.org/2000/svg" xmlns:xlink="http://www.w3.org/1999/xlink" x="0px" y="0px"
	 viewBox="0 0 511.999 511.999" style="enable-background:new 0 0 511.999 511.999;" xml:space="preserve">
<rect x="152.96" y="136.81" transform="matrix(-0.7071 -0.7071 0.7071 -0.7071 193.2514 644.0396)" style="fill:#1F84CE;" width="154.102" height="290.371"/>
<path style="fill:#FB7686;" d="M496.36,88.101l-72.448-72.448c-10.083-10.083-26.432-10.083-36.517,0l-56.778,56.778
	l108.965,108.965l56.779-56.778C506.443,114.534,506.443,98.185,496.36,88.101z"/>
<g>
	
		<rect x="281.842" y="116.052" transform="matrix(-0.7071 -0.7071 0.7071 -0.7071 504.3975 515.1655)" style="fill:#F9C526;" width="154.102" height="74.133"/>
	<path style="fill:#F9C526;" d="M9.196,484.617l63.675-154.439l108.964,108.964l-154.44,63.675
		C15.935,507.542,4.47,496.078,9.196,484.617z"/>
</g>
<path style="opacity:0.4;fill:#145587;enable-background:new    ;" d="M164.964,355.139c-2.07,0-4.141-0.79-5.721-2.37
	c-3.16-3.16-3.16-8.283,0-11.443l130.1-130.1c3.162-3.16,8.284-3.159,11.443,0c3.16,3.16,3.16,8.283,0,11.443l-130.101,130.1
	C169.105,354.35,167.035,355.139,164.964,355.139z"/>
<rect x="281.842" y="145.028" transform="matrix(-0.7071 -0.7071 0.7071 -0.7071 504.3975 515.1655)" style="opacity:0.3;fill:#E28922;enable-background:new    ;" width="154.102" height="16.181"/>
<path style="fill:#384148;" d="M27.225,440.887l-18.029,43.73c-4.725,11.461,6.739,22.925,18.2,18.2l43.731-18.03L27.225,440.887z"
	/>
<path d="M56.607,149.399c4.468,0,8.091-3.623,8.091-8.091V125.27c0-13.209,9.382-24.666,22.308-27.246
	c4.383-0.874,7.226-5.135,6.352-9.517c-0.874-4.382-5.136-7.228-9.517-6.352c-20.469,4.084-35.325,22.216-35.325,43.114v16.038
	C48.516,145.776,52.139,149.399,56.607,149.399z M56.607,280.008c4.468,0,8.091-3.623,8.091-8.091v-65.305
	c0-4.468-3.623-8.091-8.091-8.091s-8.091,3.623-8.091,8.091v65.305C48.516,276.386,52.139,280.008,56.607,280.008z M150.68,97.487
	h65.305c4.468,0,8.091-3.623,8.091-8.091s-3.623-8.091-8.091-8.091H150.68c-4.468,0-8.091,3.623-8.091,8.091
	C142.589,93.864,146.212,97.487,150.68,97.487z M305.363,447.314h-65.305c-4.468,0-8.091,3.623-8.091,8.091s3.623,8.091,8.091,8.091
	h65.305c4.469,0,8.091-3.623,8.091-8.091S309.832,447.314,305.363,447.314z M502.081,82.381L429.633,9.932
	C423.227,3.528,414.712,0,405.653,0c-9.057,0-17.573,3.528-23.979,9.932l-71.372,71.372H281.29c-4.469,0-8.091,3.623-8.091,8.091
	c0,4.468,3.621,8.091,8.091,8.091h12.83L67.149,324.458c-0.754,0.754-1.352,1.651-1.758,2.637l-2.236,5.425
	c-1.47-2.027-3.851-3.351-6.547-3.351c-4.468,0-8.091,3.623-8.091,8.091v30.762L1.716,481.533
	c-2.852,6.918-2.121,14.422,2.007,20.588c4.139,6.185,10.977,9.877,18.288,9.877c2.88,0,5.73-0.573,8.469-1.702l113.513-46.802
	h30.761c4.468,0,8.091-3.623,8.091-8.091c0-2.696-1.324-5.076-3.35-6.546l5.424-2.236c0.986-0.407,1.882-1.004,2.637-1.759
	l226.971-226.97v12.83c0,4.468,3.621,8.091,8.091,8.091c4.469,0,8.091-3.623,8.091-8.091v-29.012l71.373-71.373
	C515.303,117.116,515.303,95.602,502.081,82.381z M177.257,432.278l-37.978,15.658c-0.02,0.009-0.041,0.016-0.061,0.025
	L24.311,495.337c-0.772,0.318-1.547,0.48-2.301,0.48c-1.873,0-3.727-1.033-4.84-2.697c-0.77-1.151-1.481-3.025-0.494-5.42
	l47.377-114.908c0.008-0.017,0.014-0.035,0.022-0.053l15.661-37.984l198.46-198.459l97.521,97.522L177.257,432.278z
	 M387.158,222.377l-97.521-97.522l29.739-29.739l11.241-11.241l97.522,97.522L387.158,222.377z M490.639,118.897l-51.057,51.057
	L342.06,72.432l51.056-51.056c3.35-3.349,7.802-5.193,12.538-5.193c4.737,0,9.189,1.844,12.536,5.193l72.448,72.447
	C497.552,100.735,497.552,111.983,490.639,118.897z M422.618,287.975c-4.469,0-8.091,3.623-8.091,8.091v65.305
	c0,4.468,3.621,8.091,8.091,8.091c4.469,0,8.091-3.623,8.091-8.091v-65.305C430.708,291.597,427.087,287.975,422.618,287.975z
	 M423.508,418.693c-4.379-0.878-8.646,1.96-9.525,6.341c-2.59,12.91-14.047,22.28-27.24,22.28h-16.075
	c-4.469,0-8.091,3.623-8.091,8.091c0,4.468,3.621,8.091,8.091,8.091h16.075c20.876,0,39.004-14.836,43.106-35.278
	C430.728,423.837,427.889,419.573,423.508,418.693z"/>
<g>
</g>
<g>
</g>
<g>
</g>
<g>
</g>
<g>
</g>
<g>
</g>
<g>
</g>
<g>
</g>
<g>
</g>
<g>
</g>
<g>
</g>
<g>
</g>
<g>
</g>
<g>
</g>
<g>
</g>
</svg>
